#!OML:ASF Y:\EmotionMaleHayes\Project 1\Capture day 1\Session 1\Male1.ASF
:FULLY-SPECIFIED
:DEGREES
608
root 44.1218 17.1771 -0.875378 69.3074 84.7772 81.6867
lowerback 9.84129 2.62875 -7.25426
upperback 0.261159 2.65189 -1.4832
thorax -5.51434 1.49795 2.12666
lowerneck -18.3913 0.962488 4.50605
upperneck 17.8026 0.0844624 0.249409
head 8.59749 0.40957 -0.639175
rclavicle -1.0138e-014 -2.38542e-015
rhumerus -49.0969 5.34821 -92.1474
rradius 42.0091
rwrist -20.9619
rhand -9.95302 -26.8449
rfingers 7.12502
rthumb 16.0289 -56.2018
lclavicle -1.0138e-014 -2.38542e-015
lhumerus -46.435 -18.6801 99.8135
lradius 46.5622
lwrist 23.7434
lhand -17.5408 -21.4373
lfingers 7.12502
lthumb 8.71351 8.3628
rfemur 14.539 0.20954 7.83817
rtibia 13.6482
rfoot -198.321 -182.771
rtoes 7.56855
lfemur 18.8576 1.14816 -18.7932
ltibia 8.98314
lfoot -15.7257 10.5578
ltoes -7.67406
609
root 44.1199 17.1786 -0.869522 68.5871 84.9735 80.8698
lowerback 9.83809 2.63409 -7.13366
upperback 0.269816 2.6752 -1.41498
thorax -5.5031 1.50596 2.12805
lowerneck -18.4951 0.978028 4.46936
upperneck 17.8373 0.0832518 0.374156
head 8.62802 0.421001 -0.590772
rclavicle 3.89618e-014 -1.63003e-014
rhumerus -48.9165 5.33538 -92.0331
rradius 41.9652
rwrist -20.8825
rhand -10.0307 -26.8765
rfingers 7.12502
rthumb 15.9541 -56.2395
lclavicle 3.89618e-014 -1.63003e-014
lhumerus -46.2864 -18.5498 99.6277
lradius 46.4215
lwrist 23.9745
lhand -17.2946 -21.336
lfingers 7.12502
lthumb 8.95104 8.45414
rfemur 14.4573 0.353528 8.19878
rtibia 13.5706
rfoot -198.318 -182.975
rtoes 7.89295
lfemur 18.7953 1.05199 -18.5091
ltibia 8.88024
lfoot -15.7299 10.5601
ltoes -6.6613
610
root 44.1232 17.1793 -0.874386 67.6932 85.3507 79.8744
lowerback 9.74667 2.5914 -6.69051
upperback 0.305752 2.67976 -1.32655
thorax -5.39701 1.49342 1.97859
lowerneck -18.3697 0.970461 4.43318
upperneck 17.6759 0.0715065 0.469901
head 8.55083 0.419832 -0.554129
rclavicle -1.25234e-014 -1.27222e-014
rhumerus -48.7029 5.31856 -91.8714
rradius 41.9174
rwrist -20.6148
rhand -9.87475 -27.0704
rfingers 7.12502
rthumb 16.1043 -56.4212
lclavicle -1.25234e-014 -1.27222e-014
lhumerus -46.1379 -18.3611 99.4107
lradius 46.305
lwrist 23.9417
lhand -17.2817 -21.0295
lfingers 7.12502
lthumb 8.96349 8.76007
rfemur 14.4234 0.129658 8.57397
rtibia 13.4972
rfoot -198.263 -182.871
rtoes 7.77344
lfemur 18.7707 1.0387 -18.0659
ltibia 8.78626
lfoot -15.7485 10.4824
ltoes -6.00786
611
root 44.1113 17.1791 -0.862934 67.6896 85.3416 79.7902
lowerback 9.86512 2.62777 -6.88895
upperback 0.283292 2.69634 -1.28599
thorax -5.50053 1.51 2.1234
lowerneck -18.2469 0.931864 4.54826
upperneck 17.6392 0.0246322 0.327166
head 8.51548 0.389389 -0.627379
rclavicle -4.22417e-015 2.78299e-014
rhumerus -48.5711 5.36482 -91.7203
rradius 41.9029
rwrist -20.3617
rhand -9.3827 -27.3885
rfingers 7.12502
rthumb 16.578 -56.7004
lclavicle -4.22417e-015 2.78299e-014
lhumerus -46.0304 -18.2275 99.2346
lradius 46.103
lwrist 23.6229
lhand -17.5252 -20.7779
lfingers 7.12502
lthumb 8.72853 9.02158
rfemur 14.3102 0.467777 8.77465
rtibia 13.4158
rfoot -198.29 -183.264
rtoes 8.00963
lfemur 18.5558 1.03683 -17.9294
ltibia 8.92102
lfoot -15.7711 10.4673
ltoes -5.87651
612
root 44.1237 17.1795 -0.861327 66.6444 85.6226 78.7499
lowerback 9.78852 2.61385 -6.62111
upperback 0.318826 2.71879 -1.19818
thorax -5.41317 1.51162 2.06725
lowerneck -18.1708 0.859146 4.55822
upperneck 17.7207 -0.0736161 0.332468
head 8.52761 0.346872 -0.639617
rclavicle -2.38542e-014 8.34896e-015
rhumerus -48.5492 5.36472 -91.5737
rradius 41.9143
rwrist -20.244
rhand -8.96726 -27.5012
rfingers 7.12502
rthumb 16.978 -56.7792
lclavicle -2.38542e-014 8.34896e-015
lhumerus -45.9352 -18.1759 99.0995
lradius 45.7902
lwrist 23.2049
lhand -17.9805 -20.792
lfingers 7.12502
lthumb 8.28917 9.02542
rfemur 14.5232 0.378558 9.09458
rtibia 13.1355
rfoot -198.151 -183.175
rtoes 8.23731
lfemur 18.6764 1.04482 -17.5492
ltibia 8.81467
lfoot -15.7009 10.4342
ltoes -6.47634
613
root 44.1354 17.1805 -0.85971 67.2439 85.5754 79.3217
lowerback 9.64685 2.62543 -6.69858
upperback 0.366601 2.73985 -1.21828
thorax -5.28762 1.52015 2.0934
lowerneck -18.2188 0.808009 4.21845
upperneck 17.9294 -0.169566 0.89383
head 8.60706 0.346038 -0.40563
rclavicle 1.17283e-014 1.86858e-014
rhumerus -48.5168 5.21455 -91.3903
rradius 41.9501
rwrist -20.0724
rhand -8.86548 -27.5291
rfingers 7.12502
rthumb 17.0759 -56.7987
lclavicle 1.17283e-014 1.86858e-014
lhumerus -45.7733 -18.2351 98.9671
lradius 45.4078
lwrist 22.8381
lhand -18.4577 -20.81
lfingers 7.12502
lthumb 7.82857 9.02503
rfemur 14.6438 0.271247 8.9623
rtibia 12.9499
rfoot -198.041 -183.065
rtoes 8.16756
lfemur 18.7154 1.06511 -17.6143
ltibia 8.75767
lfoot -15.6911 10.4567
ltoes -6.99189
614
root 44.1528 17.1836 -0.867914 69.2004 85.6496 81.186
lowerback 9.29579 2.55771 -6.54203
upperback 0.455277 2.69943 -1.25316
thorax -4.9839 1.48748 1.99301
lowerneck -18.1456 0.812942 4.1851
upperneck 17.9374 -0.170728 1.00186
head 8.59726 0.355639 -0.363758
rclavicle -6.4605e-015 1.55052e-014
rhumerus -48.4218 5.00317 -91.17
rradius 42.0244
rwrist -19.7729
rhand -8.82198 -27.7248
rfingers 7.12502
rthumb 17.1178 -56.9907
lclavicle -6.4605e-015 1.55052e-014
lhumerus -45.5545 -18.2374 98.7594
lradius 45.0232
lwrist 22.2477
lhand -18.9101 -20.8
lfingers 7.12502
lthumb 7.39191 9.05084
rfemur 14.7512 -0.320243 8.70335
rtibia 12.8059
rfoot -197.978 -182.598
rtoes 8.28947
lfemur 18.7224 1.03491 -17.6959
ltibia 8.64551
lfoot -15.6343 10.3799
ltoes -7.41214
615
root 44.1569 17.1818 -0.869167 70.8472 85.2102 82.8785
lowerback 9.57665 2.6216 -7.00923
upperback 0.307775 2.69858 -1.38434
thorax -5.31349 1.50869 2.09953
lowerneck -17.9416 0.797102 4.29172
upperneck 18.1084 -0.173709 0.837873
head 8.61868 0.348647 -0.437293
rclavicle 3.47873e-015 7.95139e-016
rhumerus -48.6729 4.88121 -91.0105
rradius 42.0367
rwrist -19.4952
rhand -8.65331 -27.8674
rfingers 7.12502
rthumb 17.2801 -57.1192
lclavicle 3.47873e-015 7.95139e-016
lhumerus -45.7477 -18.0839 98.6307
lradius 44.6917
lwrist 21.4456
lhand -19.4195 -20.9172
lfingers 7.12502
lthumb 6.90017 8.95037
rfemur 14.8766 -0.406655 8.04658
rtibia 12.6998
rfoot -197.937 -182.463
rtoes 8.59097
lfemur 18.7935 1.04614 -18.2779
ltibia 8.59766
lfoot -15.632 10.4331
ltoes -7.03406
616
root 44.1667 17.1835 -0.873099 71.8842 84.9674 83.8659
lowerback 9.38223 2.65361 -7.2156
upperback 0.395984 2.74064 -1.45816
thorax -5.12106 1.52804 2.14138
lowerneck -17.8888 0.745037 4.13787
upperneck 18.0299 -0.217141 0.919422
head 8.58168 0.324192 -0.390117
rclavicle -5.1684e-015 -9.54166e-015
rhumerus -48.4711 4.88037 -90.8198
rradius 41.9032
rwrist -19.4008
rhand -8.58427 -27.905
rfingers 7.12502
rthumb 17.3466 -57.1509
lclavicle -5.1684e-015 -9.54166e-015
lhumerus -45.5093 -18.085 98.4705
lradius 44.2633
lwrist 20.9033
lhand -19.8907 -21.057
lfingers 7.12502
lthumb 6.44531 8.82493
rfemur 14.9311 -0.593494 7.58931
rtibia 12.5799
rfoot -197.801 -182.224
rtoes 8.73003
lfemur 18.8163 1.08176 -18.641
ltibia 8.52458
lfoot -15.7091 10.4583
ltoes -6.0995
617
root 44.1649 17.1865 -0.870487 71.3287 84.8581 83.2139
lowerback 9.35856 2.70144 -7.38282
upperback 0.379548 2.78807 -1.45385
thorax -5.13814 1.55627 2.23222
lowerneck -17.989 0.68068 4.07585
upperneck 18.1615 -0.297069 0.925012
head 8.64286 0.286246 -0.387832
rclavicle 5.01931e-015 4.73108e-014
rhumerus -48.396 4.84532 -90.5954
rradius 41.8962
rwrist -19.3265
rhand -8.58985 -27.9469
rfingers 7.12502
rthumb 17.3412 -57.1933
lclavicle 5.01931e-015 4.73108e-014
lhumerus -45.3253 -18.0186 98.3141
lradius 43.7721
lwrist 20.5871
lhand -20.1724 -21.0776
lfingers 7.12502
lthumb 6.17333 8.81241
rfemur 14.8168 -0.495999 7.53128
rtibia 12.5318
rfoot -197.689 -182.452
rtoes 6.94451
lfemur 18.7125 1.07135 -18.7312
ltibia 8.51329
lfoot -15.776 10.5047
ltoes -5.99924
618
root 44.1704 17.1889 -0.872287 70.7615 84.9235 82.5884
lowerback 9.27409 2.69655 -7.33449
upperback 0.410355 2.79749 -1.41164
thorax -5.05877 1.55712 2.25283
lowerneck -18.0645 0.686466 4.14031
upperneck 18.3244 -0.29085 0.824926
head 8.71161 0.286912 -0.431379
rclavicle -9.93923e-017 -1.19271e-015
rhumerus -48.2585 4.76725 -90.3403
rradius 41.8641
rwrist -19.169
rhand -8.65378 -27.7941
rfingers 7.12502
rthumb 17.2797 -57.0459
lclavicle -9.93923e-017 -1.19271e-015
lhumerus -45.0655 -17.9067 98.1163
lradius 43.2063
lwrist 20.2732
lhand -20.3086 -20.9757
lfingers 7.12502
lthumb 6.04192 8.91815
rfemur 14.8218 -0.51212 7.58966
rtibia 12.4144
rfoot -197.647 -182.346
rtoes 6.99064
lfemur 18.7207 1.07952 -18.6634
ltibia 8.4397
lfoot -15.707 10.4994
ltoes -6.98988
619
root 44.1732 17.191 -0.872623 69.5789 85.1639 81.3443
lowerback 9.22647 2.69529 -7.08699
upperback 0.430364 2.82881 -1.33168
thorax -5.00563 1.56498 2.19718
lowerneck -18.1205 0.702139 4.08634
upperneck 18.5113 -0.273822 0.900215
head 8.78622 0.304606 -0.394482
rclavicle 8.59744e-015 -3.33958e-014
rhumerus -48.0562 4.63373 -90.0711
rradius 41.7023
rwrist -18.8726
rhand -8.6614 -27.6349
rfingers 7.12502
rthumb 17.2724 -56.8874
lclavicle 8.59744e-015 -3.33958e-014
lhumerus -44.8154 -17.8188 97.9153
lradius 42.649
lwrist 19.9193
lhand -20.4294 -20.9831
lfingers 7.12502
lthumb 5.92523 8.91405
rfemur 14.7747 -0.466533 7.94403
rtibia 12.3849
rfoot -197.682 -182.36
rtoes 6.95367
lfemur 18.7093 1.06937 -18.3578
ltibia 8.38316
lfoot -15.5946 10.5938
ltoes -7.30693
620
root 44.1789 17.1929 -0.871757 70.1145 85.2313 81.8589
lowerback 9.24111 2.67271 -7.06065
upperback 0.41572 2.79929 -1.3276
thorax -5.02547 1.55054 2.19006
lowerneck -18.0692 0.732711 4.06153
upperneck 18.5645 -0.254012 1.05626
head 8.79654 0.331523 -0.334637
rclavicle -3.12092e-014 -9.93923e-015
rhumerus -47.9509 4.4731 -89.8607
rradius 41.541
rwrist -18.5176
rhand -8.36806 -27.9251
rfingers 7.12502
rthumb 17.5547 -57.1526
lclavicle -3.12092e-014 -9.93923e-015
lhumerus -44.7068 -17.7689 97.692
lradius 42.1886
lwrist 19.7067
lhand -20.5417 -21.0382
lfingers 7.12502
lthumb 5.81683 8.86194
rfemur 14.8375 -0.473502 8.02828
rtibia 12.2946
rfoot -197.685 -182.416
rtoes 6.33393
lfemur 18.7604 1.00189 -18.3093
ltibia 8.26567
lfoot -15.5306 10.6657
ltoes -6.93287
621
root 44.1843 17.1954 -0.866603 71.5848 85.1907 83.3221
lowerback 9.2821 2.63286 -7.24095
upperback 0.39947 2.72261 -1.34478
thorax -5.06638 1.51847 2.28129
lowerneck -17.9596 0.735115 4.33494
upperneck 18.5592 -0.249101 0.730731
head 8.77403 0.317055 -0.489872
rclavicle 2.84759e-014 -1.86858e-014
rhumerus -47.8821 4.4396 -89.736
rradius 41.4114
rwrist -18.3434
rhand -8.20816 -28.2835
rfingers 7.12502
rthumb 17.7085 -57.4971
lclavicle 2.84759e-014 -1.86858e-014
lhumerus -44.6098 -17.7098 97.4289
lradius 41.7583
lwrist 19.4898
lhand -20.5699 -20.6927
lfingers 7.12502
lthumb 5.78959 9.20823
rfemur 14.9367 -0.439376 8.00892
rtibia 12.1902
rfoot -197.672 -182.666
rtoes 5.62113
lfemur 18.7893 0.925765 -18.3506
ltibia 8.21276
lfoot -15.4769 10.6281
ltoes -7.15196
